<?xml version="1.0" encoding="UTF-8"?>
<svg width="132px" height="61px" viewBox="0 0 132 61" version="1.1" xmlns="http://www.w3.org/2000/svg" xmlns:xlink="http://www.w3.org/1999/xlink">
    <!-- Generator: Sketch 53.2 (72643) - https://sketchapp.com -->
    <title>Group</title>
    <desc>Created with Sketch.</desc>
    <g id="Page-1" stroke="none" stroke-width="1" fill="none" fill-rule="evenodd">
        <g id="Apple-TV" transform="translate(-844.000000, -92.000000)" fill="#FFFFFF">
            <g id="Group" transform="translate(845.000000, 92.000000)">
                <path d="M24.8495139,36.4838851 C24.8676317,33.7330268 25.4240777,30.8453446 26.5188679,27.8207547 C27.632081,24.7452676 29.2924418,22.1415201 31.5,20.009434 C33.7075582,17.8773478 36.3396074,16.8113208 39.3962264,16.8113208 C40.943404,16.8113208 42.0943358,17.0754691 42.8490566,17.6037736 C43.6037774,18.1320781 43.9811321,18.8301843 43.9811321,19.6981132 L43.9811321,20.0377358 L44.6037736,17.0943396 L52.754717,17.0943396 L47.1509434,43.3584906 C48.9622732,42.754714 50.4150889,41.8490626 51.509434,40.6415094 C52.275102,39.7966344 52.9576363,38.6654468 53.5570466,37.2479282 C53.5504621,37.0433116 53.5471698,36.8348827 53.5471698,36.6226415 C53.5471698,33.8301747 54.103768,30.8962418 55.2169811,27.8207547 C56.3301942,24.7452676 57.990555,22.1415201 60.1981132,20.009434 C62.4056714,17.8773478 65.0377206,16.8113208 68.0943396,16.8113208 C69.6415172,16.8113208 70.7924491,17.0754691 71.5471698,17.6037736 C72.3018906,18.1320781 72.6792453,18.8301843 72.6792453,19.6981132 L72.6792453,20.0943396 L73.3018868,17.0943396 L81.4528302,17.0943396 L77.3773585,36.3396226 C77.2264143,36.9056632 77.1509434,37.5094308 77.1509434,38.1509434 C77.1509434,38.9056642 77.3301869,39.4433946 77.6886792,39.7641509 C78.0471716,40.0849073 78.6415053,40.245283 79.4716981,40.245283 C80.0000026,40.245283 80.4150928,40.1698121 80.7169811,40.0188679 C79.8867883,42.132086 79.0943434,43.6132033 78.3396226,44.4622642 C77.5849019,45.311325 76.4905732,45.7358491 75.0566038,45.7358491 C73.5094262,45.7358491 72.2547218,45.2735895 71.2924528,44.3490566 C70.3301839,43.4245237 69.7358502,42.1320838 69.509434,40.4716981 C67.2075357,43.9811496 64.396243,45.7358491 61.0754717,45.7358491 C58.9245175,45.7358491 57.1320826,45.0000074 55.6981132,43.5283019 C55.0060617,42.8180385 54.481009,41.9144189 54.1229528,40.8174354 C53.6300908,41.5253201 53.098541,42.1364886 52.5283019,42.6509434 C50.7924442,44.216989 48.8301996,45.283016 46.6415094,45.8490566 L45.7924528,49.9245283 C45.0377321,53.584924 43.7358583,56.1037667 41.8867925,57.4811321 C40.0377266,58.8584975 37.9434079,59.5471698 35.6037736,59.5471698 C33.7924438,59.5471698 32.2830249,59.0754764 31.0754717,58.1320755 C29.8679185,57.1886745 29.2641509,55.8301975 29.2641509,54.0566038 C29.2641509,51.9056496 30.1320668,50.1792518 31.8679245,48.8773585 C33.6037823,47.5754652 35.8113074,46.4905704 38.490566,45.6226415 L39.1698113,42.6226415 C37.2452734,44.6981236 34.9811451,45.7358491 32.3773585,45.7358491 C30.2264043,45.7358491 28.4339694,45.0000074 27,43.5283019 C25.9790884,42.4805242 25.3216002,41.0119643 25.0275277,39.1225973 C23.7332299,40.8514631 22.1265753,42.3200249 20.2075472,43.5283019 C17.1509281,45.4528398 13.8868098,46.4150943 10.4150943,46.4150943 C6.98111491,46.4150943 4.38680123,45.4717075 2.63207547,43.5849057 C0.877349717,41.6981038 -2.84217094e-13,39.3207691 -2.84217094e-13,36.4528302 C-2.84217094e-13,34.4150842 0.424524057,32.3679348 1.27358491,30.3113208 C2.12264575,28.2547067 3.33961472,26.4528379 4.9245283,24.9056604 C6.50944189,23.3584828 8.35848,22.3207574 10.4716981,21.7924528 C9.30188094,20.96226 8.43396509,19.9528361 7.86792453,18.7641509 C7.30188396,17.5754658 7.01886792,16.3207613 7.01886792,15 C7.01886792,13.037726 7.5565984,11.113217 8.63207547,9.22641509 C9.70755255,7.33961321 11.1981037,5.80189274 13.1037736,4.61320755 C15.0094435,3.42452236 17.113196,2.83018868 19.4150943,2.83018868 C21.7924647,2.83018868 23.7358415,3.45282396 25.245283,4.69811321 C26.7547245,5.94340245 27.509434,7.67923415 27.509434,9.90566038 C27.509434,11.566046 27.0943438,12.9622585 26.2641509,14.0943396 C25.4339581,15.2264208 24.4528358,15.7924528 23.3207547,15.7924528 C22.3018817,15.7924528 21.4150981,15.283024 20.6603774,14.2641509 C21.339626,14.0377347 21.9245258,13.4150994 22.4150943,12.3962264 C22.9056628,11.3773534 23.1509434,10.3584957 23.1509434,9.33962264 C23.1509434,8.24527755 22.8490596,7.44339877 22.245283,6.93396226 C21.6415064,6.42452575 20.9056647,6.16981132 20.0377358,6.16981132 C18.9433908,6.16981132 17.9528346,6.55659991 17.0660377,7.33018868 C16.1792408,8.10377745 15.4905685,9.10376745 15,10.3301887 C14.5094315,11.5566099 14.2641509,12.8301821 14.2641509,14.1509434 C14.2641509,15.9622732 14.7358443,17.5565969 15.6792453,18.9339623 C16.6226462,20.3113276 18.0565942,21.2452806 19.9811321,21.7358491 C18.0565942,22.1509455 16.3207625,23.0943323 14.7735849,24.5660377 C13.2264074,26.0377432 12.0188723,27.7452733 11.1509434,29.6886792 C10.2830145,31.6320852 9.8490566,33.4905572 9.8490566,35.2641509 C9.8490566,36.9622726 10.2924484,38.3396174 11.1792453,39.3962264 C12.0660422,40.4528355 13.4150853,40.9811321 15.2264151,40.9811321 C17.113217,40.9811321 19.0848954,40.4622693 21.1415094,39.4245283 C22.6774393,38.6495178 23.9134345,37.6693093 24.8495139,36.4838851 Z M36.0566038,40.245283 C36.9245326,40.245283 37.8113162,39.8490606 38.7169811,39.0566038 C39.622646,38.264147 40.2452813,37.188686 40.5849057,35.8301887 L43.4716981,22.4150943 C43.4716981,21.9622619 43.2830208,21.5000024 42.9056604,21.0283019 C42.5283,20.5566014 41.9434002,20.3207547 41.1509434,20.3207547 C39.6415019,20.3207547 38.2830249,21.1981044 37.0754717,22.9528302 C35.8679185,24.7075559 34.9245317,26.8207424 34.245283,29.2924528 C33.5660343,31.7641633 33.2264151,33.9433868 33.2264151,35.8301887 C33.2264151,37.7169906 33.4999973,38.9245257 34.0471698,39.4528302 C34.5943424,39.9811347 35.264147,40.245283 36.0566038,40.245283 Z M34.3018868,55.1320755 C34.9433994,55.1320755 35.5660347,54.6981175 36.1698113,53.8301887 C36.7735879,52.9622598 37.2452813,51.7169892 37.5849057,50.0943396 L37.9245283,48.4528302 C34.2263966,49.8113275 32.3773585,51.4150851 32.3773585,53.2641509 C32.3773585,53.7547194 32.5471681,54.1886774 32.8867925,54.5660377 C33.2264168,54.9433981 33.6981102,55.1320755 34.3018868,55.1320755 Z M64.754717,40.245283 C65.6981179,40.245283 66.6320708,39.8018912 67.5566038,38.9150943 C68.4811367,38.0282975 69.1132058,36.8113285 69.4528302,35.2641509 L72.1698113,22.4716981 C72.1698113,21.9811296 71.981134,21.5000024 71.6037736,21.0283019 C71.2264132,20.5566014 70.6415134,20.3207547 69.8490566,20.3207547 C68.3396151,20.3207547 66.9811381,21.1981044 65.7735849,22.9528302 C64.5660317,24.7075559 63.6226449,26.8207424 62.9433962,29.2924528 C62.2641475,31.7641633 61.9245283,33.9433868 61.9245283,35.8301887 C61.9245283,37.7169906 62.1981105,38.9245257 62.745283,39.4528302 C63.2924556,39.9811347 63.9622602,40.245283 64.754717,40.245283 Z" id="Еда-Copy" stroke="#FFFFFF" fill-rule="nonzero"></path>
                <g id="maphin-copy" transform="translate(94.528302, 0.000000)">
                    <path d="M0,29.1612436 C1.79344588,30.165181 3.75372393,30.165181 5.88083416,29.1612436 C8.00794439,28.1573062 10.0724926,28.1573062 12.0744786,29.1612436 C13.9513406,30.457996 15.8490566,30.457996 17.7676266,29.1612436 C19.6861966,27.8644911 21.7715988,27.8644911 24.0238332,29.1612436 C25.9424032,30.3325039 27.9026812,30.3325039 29.9046673,29.1612436 C31.9066534,27.9899833 33.8252234,27.9899833 35.6603774,29.1612436 L30.1155981,44.7324387 C29.6354008,46.0809587 28.3618005,46.9811321 26.9340594,46.9811321 L8.71198234,46.9811321 C7.28322597,46.9811321 6.00895028,46.0796976 5.52951395,44.7298243 L0,29.1612436 Z M4.16973632,25.3168717 C2.97589315,25.0819444 2.37897157,24.4853791 2.37897157,23.5271758 C2.37897157,22.0898709 2.25547055,20.4414933 4.16973632,19.7009295 C6.0840021,18.9603656 6.0840021,18.713511 10.3447872,18.1580882 C13.1853106,17.7878063 16.2934196,16.6975318 19.6691141,14.8872647 L26.5851711,11.1844456 C28.7258554,9.90903014 30.2284511,9.84731649 31.0929582,10.9993046 C31.9574653,12.1512928 31.8957148,13.2827097 30.9077067,14.3935555 C30.1667006,15.4221163 29.2610265,16.3478211 28.1906843,17.1706698 C27.1203421,17.9935184 25.2884104,19.1660778 22.694889,20.6883479 C21.6245468,21.4289117 20.5336212,22.1283331 19.422112,22.786612 C17.7548483,23.7740304 14.7908239,25.440299 11.1475438,25.7488673 C8.71869048,25.9545794 6.39275465,25.8105809 4.16973632,25.3168717 Z M17.4339623,25.8396226 C21.8834582,23.8468336 25.2307854,21.9898096 27.4759438,20.2685506 C30.8436816,17.6866622 31.0273763,16.121197 33.5991033,18.1639234 C35.1009551,20.3999146 33.0329585,23.6179144 27.6596386,25.096813 C25.8867053,25.5847774 22.4781465,25.8323806 17.4339623,25.8396226 Z M20.3328129,0 C20.2086291,2.59588643 20.9744296,4.09571878 22.6302147,4.49949703 C24.2859998,4.90327528 25.4450493,5.75120961 26.1073633,7.04330002 C26.2979711,8.22589123 25.8633276,8.99306991 24.8034326,9.34483605 C23.7435376,9.69660219 22.0877526,10.6051033 19.8360774,12.0703392 C16.7728751,13.9277192 14.6617491,15.0784872 13.5026996,15.5226433 C11.7641253,16.1888774 8.47325247,18.0664463 6.85886204,16.7945448 C5.78260175,15.9466105 5.36865548,14.8765981 5.61702324,13.5845077 C6.19654801,10.7580599 7.21071636,8.96124671 8.65952828,8.19406803 C10.8327462,7.04330002 13.5385182,5.58969831 15.8490566,5.04459767 C17.3894156,4.68119724 18.884001,2.99966469 20.3328129,0 Z" id="Combined-Shape"></path>
                </g>
            </g>
        </g>
    </g>
</svg>