<?xml version="1.0" encoding="UTF-8"?>
<svg width="766px" height="114px" viewBox="0 0 766 114" version="1.1" xmlns="http://www.w3.org/2000/svg" xmlns:xlink="http://www.w3.org/1999/xlink">
    <!-- Generator: Sketch 53.2 (72643) - https://sketchapp.com -->
    <title>logo</title>
    <desc>Created with Sketch.</desc>
    <defs>
        <path d="M312.900808,64.4548637 C312.932816,59.5950141 313.915871,54.4934422 315.85,49.15 C317.816677,43.7166395 320.74998,39.1166855 324.65,35.35 C328.55002,31.5833145 333.199973,29.7 338.6,29.7 C341.333347,29.7 343.36666,30.166662 344.7,31.1 C346.03334,32.033338 346.7,33.266659 346.7,34.8 L346.7,35.4 L347.8,30.2 L362.2,30.2 L352.3,76.6 C355.500016,75.533328 358.066657,73.933344 360,71.8 C361.35268,70.3073875 362.558491,68.308956 363.617449,65.8046732 C363.605816,65.4431838 363.6,65.0749594 363.6,64.7 C363.6,59.766642 364.583323,54.5833605 366.55,49.15 C368.516676,43.7166395 371.44998,39.1166855 375.35,35.35 C379.250019,31.5833145 383.899973,29.7 389.3,29.7 C392.033347,29.7 394.06666,30.166662 395.4,31.1 C396.73334,32.033338 397.4,33.266659 397.4,34.8 L397.4,35.5 L398.5,30.2 L412.9,30.2 L405.7,64.2 C405.433332,65.200005 405.3,66.266661 405.3,67.4 C405.3,68.73334 405.616664,69.6833305 406.25,70.25 C406.883336,70.8166695 407.933326,71.1 409.4,71.1 C410.333338,71.1 411.066664,70.966668 411.6,70.7 C410.133326,74.433352 408.73334,77.0499925 407.4,78.55 C406.06666,80.0500075 404.133346,80.8 401.6,80.8 C398.866653,80.8 396.650008,79.9833415 394.95,78.35 C393.249992,76.7166585 392.200002,74.433348 391.8,71.5 C387.733313,77.700031 382.766696,80.8 376.9,80.8 C373.099981,80.8 369.933346,79.500013 367.4,76.9 C366.177376,75.6452013 365.249783,74.0488067 364.617217,72.1108026 C363.746494,73.3613989 362.807422,74.4411298 361.8,75.35 C358.733318,78.1166805 355.266686,79.999995 351.4,81 L349.9,88.2 C348.56666,94.666699 346.266683,99.1166545 343,101.55 C339.733317,103.983345 336.033354,105.2 331.9,105.2 C328.699984,105.2 326.033344,104.366675 323.9,102.7 C321.766656,101.033325 320.7,98.633349 320.7,95.5 C320.7,91.699981 322.233318,88.6500115 325.3,86.35 C328.366682,84.0499885 332.266643,82.133341 337,80.6 L338.2,75.3 C334.799983,78.966685 330.800023,80.8 326.2,80.8 C322.399981,80.8 319.233346,79.500013 316.7,76.9 C314.89639,75.0489261 313.734827,72.4544703 313.215299,69.1165885 C310.928706,72.1709182 308.090283,74.7653774 304.7,76.9 C299.299973,80.300017 293.533364,82 287.4,82 C281.333303,82 276.750015,80.33335 273.65,77 C270.549984,73.66665 269,69.466692 269,64.4 C269,60.799982 269.749993,57.1833515 271.25,53.55 C272.750007,49.9166485 274.899986,46.733347 277.7,44 C280.500014,41.266653 283.766648,39.433338 287.5,38.5 C285.433323,37.033326 283.900005,35.2500105 282.9,33.15 C281.899995,31.0499895 281.4,28.833345 281.4,26.5 C281.4,23.033316 282.34999,19.63335 284.25,16.3 C286.150009,12.96665 288.783317,10.2500105 292.15,8.15 C295.516683,6.0499895 299.233313,5 303.3,5 C307.500021,5 310.93332,6.099989 313.6,8.3 C316.26668,10.500011 317.6,13.566647 317.6,17.5 C317.6,20.433348 316.866674,22.89999 315.4,24.9 C313.933326,26.90001 312.20001,27.9 310.2,27.9 C308.399991,27.9 306.83334,27.000009 305.5,25.2 C306.700006,24.799998 307.733329,23.700009 308.6,21.9 C309.466671,20.099991 309.9,18.300009 309.9,16.5 C309.9,14.566657 309.366672,13.1500045 308.3,12.25 C307.233328,11.3499955 305.933341,10.9 304.4,10.9 C302.466657,10.9 300.716675,11.5833265 299.15,12.95 C297.583325,14.3166735 296.366671,16.0833225 295.5,18.25 C294.633329,20.4166775 294.2,22.666655 294.2,25 C294.2,28.200016 295.033325,31.0166545 296.7,33.45 C298.366675,35.8833455 300.899983,37.533329 304.3,38.4 C300.899983,39.133337 297.833347,40.799987 295.1,43.4 C292.366653,46.000013 290.233341,49.0166495 288.7,52.45 C287.166659,55.8833505 286.4,59.166651 286.4,62.3 C286.4,65.300015 287.183325,67.733324 288.75,69.6 C290.316675,71.466676 292.699984,72.4 295.9,72.4 C299.23335,72.4 302.716648,71.4833425 306.35,69.65 C309.063476,68.2808148 311.247068,66.549113 312.900808,64.4548637 Z M332.7,71.1 C334.233341,71.1 335.799992,70.400007 337.4,69 C339.000008,67.599993 340.099997,65.700012 340.7,63.3 L345.8,39.6 C345.8,38.799996 345.46667,37.9833375 344.8,37.15 C344.13333,36.3166625 343.100007,35.9 341.7,35.9 C339.03332,35.9 336.633344,37.4499845 334.5,40.55 C332.366656,43.6500155 330.700006,47.3833115 329.5,51.75 C328.299994,56.1166885 327.7,59.96665 327.7,63.3 C327.7,66.63335 328.183329,68.766662 329.15,69.7 C330.116672,70.633338 331.299993,71.1 332.7,71.1 Z M329.6,97.4 C330.733339,97.4 331.833328,96.633341 332.9,95.1 C333.966672,93.566659 334.799997,91.366681 335.4,88.5 L336,85.6 C329.466634,88.000012 326.2,90.833317 326.2,94.1 C326.2,94.966671 326.499997,95.73333 327.1,96.4 C327.700003,97.06667 328.533328,97.4 329.6,97.4 Z M383.4,71.1 C385.066675,71.1 386.716658,70.3166745 388.35,68.75 C389.983342,67.1833255 391.099997,65.033347 391.7,62.3 L396.5,39.7 C396.5,38.833329 396.16667,37.9833375 395.5,37.15 C394.83333,36.3166625 393.800007,35.9 392.4,35.9 C389.73332,35.9 387.333344,37.4499845 385.2,40.55 C383.066656,43.6500155 381.400006,47.3833115 380.2,51.75 C378.999994,56.1166885 378.4,59.96665 378.4,63.3 C378.4,66.63335 378.883329,68.766662 379.85,69.7 C380.816672,70.633338 381.999993,71.1 383.4,71.1 Z" id="path-1"></path>
        <filter x="-4.5%" y="-4.5%" width="111.9%" height="117.0%" filterUnits="objectBoundingBox" id="filter-2">
            <feMorphology radius="0.5" operator="dilate" in="SourceAlpha" result="shadowSpreadOuter1"></feMorphology>
            <feOffset dx="2" dy="4" in="shadowSpreadOuter1" result="shadowOffsetOuter1"></feOffset>
            <feGaussianBlur stdDeviation="2" in="shadowOffsetOuter1" result="shadowBlurOuter1"></feGaussianBlur>
            <feComposite in="shadowBlurOuter1" in2="SourceAlpha" operator="out" result="shadowBlurOuter1"></feComposite>
            <feColorMatrix values="0 0 0 0 0   0 0 0 0 0   0 0 0 0 0  0 0 0 0.536604021 0" type="matrix" in="shadowBlurOuter1"></feColorMatrix>
        </filter>
        <filter x="-25.4%" y="-19.3%" width="150.8%" height="138.6%" filterUnits="objectBoundingBox" id="filter-3">
            <feOffset dx="2" dy="4" in="SourceAlpha" result="shadowOffsetOuter1"></feOffset>
            <feGaussianBlur stdDeviation="2" in="shadowOffsetOuter1" result="shadowBlurOuter1"></feGaussianBlur>
            <feColorMatrix values="0 0 0 0 0   0 0 0 0 0   0 0 0 0 0  0 0 0 0.5 0" type="matrix" in="shadowBlurOuter1" result="shadowMatrixOuter1"></feColorMatrix>
            <feMerge>
                <feMergeNode in="shadowMatrixOuter1"></feMergeNode>
                <feMergeNode in="SourceGraphic"></feMergeNode>
            </feMerge>
        </filter>
    </defs>
    <g id="Page-1" stroke="none" stroke-width="1" fill="none" fill-rule="evenodd">
        <g id="My-meny" transform="translate(-577.000000, -81.000000)">
            <g id="logo" transform="translate(578.000000, 81.000000)">
                <g id="Еда" fill-rule="nonzero">
                    <use fill="black" fill-opacity="1" filter="url(#filter-2)" xlink:href="#path-1"></use>
                    <use stroke="#FFFFFF" stroke-width="1" fill="#FFFFFF" xlink:href="#path-1"></use>
                </g>
                <path d="M763.5,45.5 L526.564352,45.5" id="Line-Copy" stroke="#FFFFFF" stroke-width="2" stroke-linecap="square"></path>
                <path d="M237.5,45.5 L0.564351876,45.5" id="Line-Copy-2" stroke="#FFFFFF" stroke-width="2" stroke-linecap="square"></path>
                <g id="maphin" filter="url(#filter-3)" transform="translate(436.000000, 0.000000)" fill="#FFFFFF">
                    <path d="M0,51.518197 C3.16842105,53.2918197 6.63157895,53.2918197 10.3894737,51.518197 C14.1473684,49.7445743 17.7947368,49.7445743 21.3315789,51.518197 C24.6473684,53.8091263 28,53.8091263 31.3894737,51.518197 C34.7789474,49.2272677 38.4631579,49.2272677 42.4421053,51.518197 C45.8315789,53.5874235 49.2947368,53.5874235 52.8315789,51.518197 C56.3684211,49.4489705 59.7578947,49.4489705 63,51.518197 L53.2042232,79.0273084 C52.3558747,81.4096937 50.1058476,83 47.583505,83 L15.3911688,83 C12.8670326,83 10.6158122,81.4074657 9.76880798,79.0226896 L0,51.518197 Z M7.36653417,44.7264734 C5.25741123,44.3114351 4.20284976,43.2575031 4.20284976,41.5646773 C4.20284976,39.0254386 3.98466463,36.1133048 7.36653417,34.8049754 C10.7484037,33.496646 10.7484037,33.0605362 18.2757908,32.0792891 C23.2940488,31.4251244 28.7850413,29.4989728 34.7487682,26.3008343 L46.9671356,19.7591872 C50.7490112,17.5059533 53.4035969,17.3969258 54.9308929,19.4321049 C56.4581888,21.467284 56.3490962,23.4661205 54.6036152,25.4286146 C53.2945044,27.2457388 51.6944801,28.8811506 49.8035423,30.3348499 C47.9126045,31.7885493 44.6761917,33.8600708 40.0943039,36.5494146 C38.2033661,37.857744 36.2760641,39.0933884 34.3123979,40.2563479 C31.3668986,42.0007871 26.1304555,44.9445283 19.6939941,45.4896655 C15.4030199,45.8530903 11.2938665,45.598693 7.36653417,44.7264734 Z M30.8,45.65 C38.6607761,42.129406 44.5743875,38.8486636 48.5408341,35.8077727 C54.4905041,31.2464365 54.8150315,28.4807813 59.3584159,32.089598 C62.0116874,36.0398492 58.3582266,41.7249821 48.8653616,44.337703 C45.7331793,45.1997734 39.7113921,45.6372058 30.8,45.65 Z M35.9213028,0 C35.7019113,4.58606603 37.0548257,7.23576984 39.980046,7.94911142 C42.9052662,8.662453 44.9529204,10.1604703 46.1230085,12.4431634 C46.459749,14.5324078 45.6918787,15.8877568 43.8193976,16.5092104 C41.9469165,17.1306639 39.0216962,18.7356824 35.0437368,21.324266 C29.6320793,24.6056373 25.9024234,26.6386608 23.8547692,27.4233365 C20.783288,28.6003501 14.9694127,31.9173884 12.1173229,29.6703625 C10.2159298,28.1723452 9.48462469,26.28199 9.92340773,23.9992969 C10.9472348,19.0059059 12.7389322,15.8315359 15.2985,14.4761869 C19.1378516,12.4431634 23.9180488,9.87513368 28,8.91212255 C30.7213008,8.27011513 33.3617351,5.29940761 35.9213028,0 Z" id="Combined-Shape"></path>
                </g>
            </g>
        </g>
    </g>
</svg>